<svg width="25" height="24" viewBox="0 0 25 24" fill="none" xmlns="http://www.w3.org/2000/svg">
<g clip-path="url(#clip0_2_5078)">
<mask id="mask0_2_5078" style="mask-type:luminance" maskUnits="userSpaceOnUse" x="0" y="0" width="25" height="24">
<path d="M0.5 1.90735e-06H24.5V24H0.5V1.90735e-06Z" fill="white"/>
</mask>
<g mask="url(#mask0_2_5078)">
<path d="M24.0312 11.9405C24.0312 18.2831 18.8895 23.4248 12.5469 23.4248C9.20328 23.4248 6.19344 21.9961 4.09484 19.7156C3.54359 19.117 3.05562 18.4594 2.64031 17.7539C1.63766 16.0486 1.0625 14.0616 1.0625 11.9405C1.0625 5.59781 6.20422 0.456087 12.5469 0.456087C14.6684 0.456087 16.6555 1.03124 18.3603 2.03437C19.0658 2.44921 19.723 2.93718 20.3216 3.4889C22.602 5.58656 24.0312 8.59687 24.0312 11.9405Z" fill="#F0CD00"/>
<path d="M24.0312 11.9405C24.0312 18.1402 19.1192 23.1923 12.9744 23.4169C6.82951 23.1923 1.91748 18.1402 1.91748 11.9405C1.91748 5.74078 6.82951 0.688589 12.9744 0.464057C19.1192 0.688589 24.0312 5.74078 24.0312 11.9405Z" fill="#FFDE50"/>
<path d="M20.3216 3.48892L4.09485 19.7156C3.54355 19.117 3.05559 18.4594 2.64032 17.7539L18.3603 2.03439C19.0658 2.44923 19.7229 2.9372 20.3216 3.48892Z" fill="#FFEA94"/>
<path d="M23.239 7.74187L8.34778 22.6331C7.29356 22.2187 6.31528 21.653 5.44012 20.9625L21.5689 4.83374C22.2594 5.7089 22.8251 6.68718 23.239 7.74187Z" fill="#FFEA94"/>
<path d="M21.4709 11.9405C21.4709 16.8689 17.4753 20.8645 12.5469 20.8645C10.8303 20.8645 9.22718 20.3798 7.86644 19.5398C7.27343 19.1742 6.72687 18.7406 6.23655 18.2503C5.87613 17.8903 5.54613 17.4989 5.25124 17.0813C4.8453 16.5061 4.50546 15.8808 4.24343 15.2166C3.8553 14.2345 3.63687 13.1667 3.62374 12.0502C3.6228 12.0136 3.6228 11.977 3.6228 11.9405C3.6228 7.01203 7.61796 3.01641 12.5469 3.01641C12.5834 3.01641 12.6205 3.01641 12.657 3.01735C13.7736 3.03047 14.841 3.24938 15.823 3.63703C16.4872 3.89953 17.1125 4.23891 17.6876 4.64485C18.1053 4.94016 18.4962 5.26969 18.8567 5.63016C19.347 6.12 19.7806 6.66703 20.1462 7.26C20.9862 8.62078 21.4709 10.2239 21.4709 11.9405Z" fill="#FAA300"/>
<path d="M18.8567 5.63015L6.23655 18.2503C5.87608 17.8903 5.54608 17.4989 5.25124 17.0812C4.8453 16.5061 4.50546 15.8808 4.24343 15.2166C3.8553 14.2345 3.63686 13.1667 3.62369 12.0501C3.6228 12.0136 3.6228 11.977 3.6228 11.9405C3.6228 7.01202 7.61791 3.0164 12.5469 3.0164C12.5834 3.0164 12.6205 3.0164 12.657 3.01734C13.7736 3.03046 14.8409 3.24937 15.8229 3.63703C16.4871 3.89953 17.1125 4.2389 17.6876 4.64484C18.1053 4.94015 18.4962 5.26968 18.8567 5.63015Z" fill="#FFBD00"/>
<path d="M21.4707 11.9405C21.4707 16.8689 17.4751 20.8645 12.5466 20.8645C12.3774 20.8645 12.2096 20.8598 12.0427 20.8505C16.7368 20.5894 20.4624 16.6997 20.4624 11.9405C20.4624 7.18125 16.7368 3.29156 12.0427 3.03047C12.2096 3.0211 12.3774 3.01641 12.5466 3.01641C17.4751 3.01641 21.4707 7.01203 21.4707 11.9405Z" fill="#F68E00"/>
<path d="M15.6528 0.881117C14.6649 0.604227 13.6231 0.456148 12.5467 0.456148C6.20408 0.456148 1.06232 5.59787 1.06232 11.9405C1.06232 18.2832 6.20408 23.4249 12.5467 23.4249C18.8893 23.4249 24.0311 18.2832 24.0311 11.9405C24.0311 7.14709 21.0943 3.03952 16.922 1.31898" stroke="black" stroke-width="0.75" stroke-miterlimit="10" stroke-linecap="round" stroke-linejoin="round"/>
<path d="M21.4707 11.9405C21.4707 16.8691 17.4753 20.8645 12.5467 20.8645C7.61812 20.8645 3.62268 16.8691 3.62268 11.9405C3.62268 7.01193 7.61812 3.01653 12.5467 3.01653C17.4753 3.01653 21.4707 7.01193 21.4707 11.9405Z" stroke="black" stroke-width="0.75" stroke-miterlimit="10" stroke-linecap="round" stroke-linejoin="round"/>
<path d="M13.2021 15.7189H10.221V12.6683H12.4755H13.2021C14.0431 12.6683 14.7274 13.3526 14.7274 14.1936C14.7274 15.0347 14.0431 15.7189 13.2021 15.7189ZM10.221 8.16194H12.4755C13.201 8.16194 13.7911 8.75215 13.7911 9.47763C13.7911 10.2031 13.201 10.7933 12.4755 10.7933H10.221V8.16194ZM16.6024 14.1936C16.6024 13.0034 15.9873 11.9548 15.0587 11.3471C15.4403 10.8213 15.6661 10.1755 15.6661 9.47763C15.6661 8.27243 14.9943 7.22135 14.0057 6.67873V5.52307C14.0057 5.00529 13.5859 4.58557 13.0682 4.58557C12.5504 4.58557 12.1307 5.00529 12.1307 5.52307V6.28694H10.9992V5.52307C10.9992 5.00529 10.5795 4.58557 10.0617 4.58557C9.54393 4.58557 9.12421 5.00529 9.12421 5.52307V6.28694H8.02246C7.50468 6.28694 7.08496 6.70666 7.08496 7.22444C7.08496 7.74223 7.50468 8.16194 8.02246 8.16194H8.34599V11.7308V15.7189H8.02246C7.50468 15.7189 7.08496 16.1387 7.08496 16.6564C7.08496 17.1742 7.50468 17.5939 8.02246 17.5939H9.12421V18.3578C9.12421 18.8756 9.54393 19.2953 10.0617 19.2953C10.5795 19.2953 10.9992 18.8756 10.9992 18.3578V17.5939H12.1307V18.3578C12.1307 18.8756 12.5504 19.2953 13.0682 19.2953C13.5859 19.2953 14.0057 18.8756 14.0057 18.3578V17.4972C15.494 17.1351 16.6024 15.7917 16.6024 14.1936Z" fill="#F68E00"/>
<path d="M14.374 15.7189H11.3929V12.6683H13.6474H14.374C15.2151 12.6683 15.8993 13.3526 15.8993 14.1936C15.8993 15.0347 15.2151 15.7189 14.374 15.7189ZM11.3929 8.16194H13.6474C14.3729 8.16194 14.9631 8.75215 14.9631 9.47763C14.9631 10.2031 14.3729 10.7933 13.6474 10.7933H11.3929V8.16194ZM17.7743 14.1936C17.7743 13.0034 17.1592 11.9548 16.2307 11.3471C16.6122 10.8213 16.8381 10.1755 16.8381 9.47763C16.8381 8.27243 16.1662 7.22135 15.1776 6.67873V5.52307C15.1776 5.00529 14.7578 4.58557 14.2401 4.58557C13.7223 4.58557 13.3026 5.00529 13.3026 5.52307V6.28694H12.1711V5.52307C12.1711 5.00529 11.7514 4.58557 11.2336 4.58557C10.7159 4.58557 10.2961 5.00529 10.2961 5.52307V6.28694H9.1944C8.67662 6.28694 8.2569 6.70666 8.2569 7.22444C8.2569 7.74223 8.67662 8.16194 9.1944 8.16194H9.51793V11.7308V15.7189H9.1944C8.67662 15.7189 8.2569 16.1387 8.2569 16.6564C8.2569 17.1742 8.67662 17.5939 9.1944 17.5939H10.2961V18.3578C10.2961 18.8756 10.7159 19.2953 11.2336 19.2953C11.7514 19.2953 12.1711 18.8756 12.1711 18.3578V17.5939H13.3026V18.3578C13.3026 18.8756 13.7223 19.2953 14.2401 19.2953C14.7578 19.2953 15.1776 18.8756 15.1776 18.3578V17.4972C16.6659 17.1351 17.7743 15.7917 17.7743 14.1936Z" fill="#FFEA94"/>
<path d="M9.51793 14.9957V15.7189H9.1944C8.67662 15.7189 8.2569 16.1387 8.2569 16.6564C8.2569 17.1742 8.67662 17.5939 9.1944 17.5939H10.2961V18.3578C10.2961 18.8756 10.7159 19.2953 11.2336 19.2953C11.7514 19.2953 12.1711 18.8756 12.1711 18.3578V17.5939H13.3026V18.3578C13.3026 18.8756 13.7223 19.2953 14.2401 19.2953C14.7578 19.2953 15.1776 18.8756 15.1776 18.3578V17.4972C16.6659 17.1351 17.7743 15.7917 17.7743 14.1936C17.7743 13.0034 17.1592 11.9548 16.2307 11.3471C16.6122 10.8213 16.8381 10.1755 16.8381 9.47763C16.8381 8.27243 16.1662 7.22135 15.1776 6.67873V5.52307C15.1776 5.00529 14.7578 4.58557 14.2401 4.58557C13.7223 4.58557 13.3026 5.00529 13.3026 5.52307V6.28694H12.1711V5.52307C12.1711 5.00529 11.7514 4.58557 11.2336 4.58557C10.7159 4.58557 10.2961 5.00529 10.2961 5.52307V6.28694H9.1944C8.67662 6.28694 8.2569 6.70666 8.2569 7.22444C8.2569 7.74223 8.67662 8.16194 9.1944 8.16194H9.51793V11.7308V13.5893M14.374 15.7189H11.3929V12.6683H13.6474H14.374C15.2151 12.6683 15.8993 13.3526 15.8993 14.1936C15.8993 15.0347 15.2151 15.7189 14.374 15.7189ZM11.3929 8.16194H13.6474C14.3729 8.16194 14.9631 8.75215 14.9631 9.47763C14.9631 10.2031 14.3729 10.7933 13.6474 10.7933H11.3929V8.16194Z" stroke="black" stroke-width="0.75" stroke-miterlimit="10" stroke-linecap="round" stroke-linejoin="round"/>
</g>
</g>
<defs>
<clipPath id="clip0_2_5078">
<rect width="24" height="24" fill="white" transform="translate(0.5)"/>
</clipPath>
</defs>
</svg>
