<svg width="37" height="36" viewBox="0 0 37 36" fill="none" xmlns="http://www.w3.org/2000/svg">
<g clip-path="url(#clip0_3_8849)">
<mask id="mask0_3_8849" style="mask-type:luminance" maskUnits="userSpaceOnUse" x="0" y="0" width="37" height="36">
<path d="M0.5 3.8147e-06H36.5V36H0.5V3.8147e-06Z" fill="white"/>
</mask>
<g mask="url(#mask0_3_8849)">
<path d="M35.7969 17.9109C35.7969 27.4249 28.0843 35.1375 18.5703 35.1375C13.5549 35.1375 9.04016 32.9943 5.89227 29.5736C5.06539 28.6757 4.33344 27.6892 3.71047 26.631C2.20648 24.0731 1.34375 21.0925 1.34375 17.9109C1.34375 8.39691 9.05633 0.68433 18.5703 0.68433C21.7527 0.68433 24.7332 1.54706 27.2905 3.05175C28.3487 3.67402 29.3344 4.40597 30.2323 5.23355C33.653 8.38003 35.7969 12.8955 35.7969 17.9109Z" fill="#F0CD00"/>
<path d="M35.7968 17.9109C35.7968 27.2104 28.4288 34.7887 19.2115 35.1255C9.99427 34.7887 2.62622 27.2104 2.62622 17.9109C2.62622 8.61135 9.99427 1.03307 19.2115 0.696269C28.4288 1.03307 35.7968 8.61135 35.7968 17.9109Z" fill="#FFDE50"/>
<path d="M30.2323 5.23341L5.89225 29.5735C5.0653 28.6756 4.33335 27.6891 3.71045 26.6309L27.2904 3.05161C28.3487 3.67388 29.3344 4.40583 30.2323 5.23341Z" fill="#FFEA94"/>
<path d="M34.6085 11.6128L12.2716 33.9497C10.6903 33.3281 9.22289 32.4795 7.91016 31.4438L32.1033 7.25064C33.1391 8.56338 33.9877 10.0308 34.6085 11.6128Z" fill="#FFEA94"/>
<path d="M31.9564 17.9108C31.9564 25.3034 25.963 31.2969 18.5703 31.2969C15.9955 31.2969 13.5908 30.5698 11.5497 29.3098C10.6601 28.7614 9.8403 28.111 9.10483 27.3755C8.5642 26.8355 8.0692 26.2484 7.62686 25.622C7.01796 24.7592 6.50819 23.8213 6.11514 22.8249C5.53296 21.3519 5.2053 19.7502 5.18561 18.0753C5.18421 18.0205 5.1842 17.9656 5.1842 17.9108C5.1842 10.5181 11.1769 4.52469 18.5703 4.52469C18.6251 4.52469 18.6807 4.52469 18.7355 4.5261C20.4104 4.54578 22.0115 4.87414 23.4844 5.45563C24.4808 5.84938 25.4188 6.35844 26.2815 6.96734C26.908 7.41031 27.4944 7.90461 28.0351 8.44531C28.7705 9.18008 29.4209 10.0006 29.9694 10.8901C31.2294 12.9313 31.9564 15.3359 31.9564 17.9108Z" fill="#FAA300"/>
<path d="M28.0351 8.44526L9.10483 27.3755C8.56412 26.8355 8.06912 26.2484 7.62686 25.6219C7.01795 24.7592 6.50819 23.8212 6.11514 22.8249C5.53295 21.3518 5.2053 19.7501 5.18554 18.0753C5.1842 18.0204 5.1842 17.9656 5.1842 17.9107C5.1842 10.5181 11.1769 4.52463 18.5703 4.52463C18.6251 4.52463 18.6807 4.52463 18.7355 4.52604C20.4104 4.54572 22.0114 4.87408 23.4844 5.45557C24.4807 5.84932 25.4187 6.35838 26.2815 6.96729C26.908 7.41026 27.4944 7.90455 28.0351 8.44526Z" fill="#FFBD00"/>
<path d="M31.956 17.9108C31.956 25.3034 25.9626 31.2969 18.5699 31.2969C18.3161 31.2969 18.0644 31.2898 17.8141 31.2758C24.8552 30.8841 30.4436 25.0496 30.4436 17.9108C30.4436 10.772 24.8552 4.93742 17.8141 4.54578C18.0644 4.53172 18.3161 4.52469 18.5699 4.52469C25.9626 4.52469 31.956 10.5181 31.956 17.9108Z" fill="#F68E00"/>
<path d="M23.2293 1.32178C21.7473 0.906448 20.1847 0.68433 18.5701 0.68433C9.05615 0.68433 1.34351 8.39691 1.34351 17.9109C1.34351 27.4249 9.05615 35.1375 18.5701 35.1375C28.084 35.1375 35.7966 27.4249 35.7966 17.9109C35.7966 10.7207 31.3916 4.55939 25.133 1.97857" stroke="black" stroke-miterlimit="10" stroke-linecap="round" stroke-linejoin="round"/>
<path d="M31.9561 17.9109C31.9561 25.3038 25.963 31.2969 18.5701 31.2969C11.1772 31.2969 5.18408 25.3038 5.18408 17.9109C5.18408 10.5181 11.1772 4.52497 18.5701 4.52497C25.963 4.52497 31.9561 10.5181 31.9561 17.9109Z" stroke="black" stroke-miterlimit="10" stroke-linecap="round" stroke-linejoin="round"/>
<path d="M19.5532 23.5786H15.0815V19.0025H18.4632H19.5532C20.8147 19.0025 21.8411 20.029 21.8411 21.2905C21.8411 22.5521 20.8147 23.5786 19.5532 23.5786ZM15.0815 12.2431H18.4632C19.5515 12.2431 20.4367 13.1284 20.4367 14.2166C20.4367 15.3047 19.5515 16.19 18.4632 16.19H15.0815V12.2431ZM24.6536 21.2905C24.6536 19.5053 23.7309 17.9323 22.3381 17.0207C22.9105 16.2321 23.2492 15.2634 23.2492 14.2166C23.2492 12.4088 22.2415 10.8322 20.7585 10.0182V8.28474C20.7585 7.50807 20.1289 6.87849 19.3523 6.87849C18.5756 6.87849 17.946 7.50807 17.946 8.28474V9.43055H16.2488V8.28474C16.2488 7.50807 15.6192 6.87849 14.8426 6.87849C14.0659 6.87849 13.4363 7.50807 13.4363 8.28474V9.43055H11.7837C11.007 9.43055 10.3774 10.0601 10.3774 10.8368C10.3774 11.6135 11.007 12.2431 11.7837 12.2431H12.269V17.5963V23.5786H11.7837C11.007 23.5786 10.3774 24.2081 10.3774 24.9848C10.3774 25.7615 11.007 26.3911 11.7837 26.3911H13.4363V27.5369C13.4363 28.3135 14.0659 28.9431 14.8426 28.9431C15.6192 28.9431 16.2488 28.3135 16.2488 27.5369V26.3911H17.946V27.5369C17.946 28.3135 18.5756 28.9431 19.3523 28.9431C20.1289 28.9431 20.7585 28.3135 20.7585 27.5369V26.2459C22.9909 25.7028 24.6536 23.6877 24.6536 21.2905Z" fill="#F68E00"/>
<path d="M21.3111 23.5786H16.8394V19.0025H20.2212H21.3111C22.5726 19.0025 23.5991 20.029 23.5991 21.2905C23.5991 22.5521 22.5726 23.5786 21.3111 23.5786ZM16.8394 12.2431H20.2212C21.3094 12.2431 22.1946 13.1284 22.1946 14.2166C22.1946 15.3047 21.3094 16.19 20.2212 16.19H16.8394V12.2431ZM26.4116 21.2905C26.4116 19.5053 25.4888 17.9323 24.096 17.0207C24.6684 16.2321 25.0071 15.2634 25.0071 14.2166C25.0071 12.4088 23.9993 10.8322 22.5165 10.0182V8.28474C22.5165 7.50807 21.8868 6.87849 21.1102 6.87849C20.3335 6.87849 19.704 7.50807 19.704 8.28474V9.43055H18.0068V8.28474C18.0068 7.50807 17.3772 6.87849 16.6005 6.87849C15.8238 6.87849 15.1942 7.50807 15.1942 8.28474V9.43055H13.5416C12.765 9.43055 12.1354 10.0601 12.1354 10.8368C12.1354 11.6135 12.765 12.2431 13.5416 12.2431H14.0269V17.5963V23.5786H13.5416C12.765 23.5786 12.1354 24.2081 12.1354 24.9848C12.1354 25.7615 12.765 26.3911 13.5416 26.3911H15.1942V27.5369C15.1942 28.3135 15.8238 28.9431 16.6005 28.9431C17.3772 28.9431 18.0068 28.3135 18.0068 27.5369V26.3911H19.704V27.5369C19.704 28.3135 20.3335 28.9431 21.1102 28.9431C21.8868 28.9431 22.5165 28.3135 22.5165 27.5369V26.2459C24.7489 25.7028 26.4116 23.6877 26.4116 21.2905Z" fill="#FFEA94"/>
<path d="M14.0269 22.4936V23.5786H13.5416C12.765 23.5786 12.1354 24.2081 12.1354 24.9848C12.1354 25.7615 12.765 26.3911 13.5416 26.3911H15.1942V27.5369C15.1942 28.3135 15.8238 28.9431 16.6005 28.9431C17.3772 28.9431 18.0068 28.3135 18.0068 27.5369V26.3911H19.704V27.5369C19.704 28.3135 20.3335 28.9431 21.1102 28.9431C21.8868 28.9431 22.5165 28.3135 22.5165 27.5369V26.2459C24.7489 25.7028 26.4116 23.6877 26.4116 21.2905C26.4116 19.5053 25.4888 17.9323 24.096 17.0207C24.6684 16.2321 25.0071 15.2634 25.0071 14.2166C25.0071 12.4088 23.9993 10.8322 22.5165 10.0182V8.28474C22.5165 7.50807 21.8868 6.87849 21.1102 6.87849C20.3335 6.87849 19.704 7.50807 19.704 8.28474V9.43055H18.0068V8.28474C18.0068 7.50807 17.3772 6.87849 16.6005 6.87849C15.8238 6.87849 15.1942 7.50807 15.1942 8.28474V9.43055H13.5416C12.765 9.43055 12.1354 10.0601 12.1354 10.8368C12.1354 11.6135 12.765 12.2431 13.5416 12.2431H14.0269V17.5963V20.3841M21.3111 23.5786H16.8394V19.0025H20.2212H21.3111C22.5726 19.0025 23.5991 20.029 23.5991 21.2905C23.5991 22.5521 22.5726 23.5786 21.3111 23.5786ZM16.8394 12.2431H20.2212C21.3094 12.2431 22.1946 13.1284 22.1946 14.2166C22.1946 15.3047 21.3094 16.19 20.2212 16.19H16.8394V12.2431Z" stroke="black" stroke-miterlimit="10" stroke-linecap="round" stroke-linejoin="round"/>
</g>
</g>
<defs>
<clipPath id="clip0_3_8849">
<rect width="36" height="36" fill="white" transform="translate(0.5)"/>
</clipPath>
</defs>
</svg>
