<svg width="36" height="36" viewBox="0 0 36 36" fill="none" xmlns="http://www.w3.org/2000/svg">
<g clip-path="url(#clip0_3_8895)">
<path d="M18.0591 35.4001C27.6685 35.4001 35.4585 27.6101 35.4585 18.0007C35.4585 8.39129 27.6685 0.601318 18.0591 0.601318C8.4497 0.601318 0.659729 8.39129 0.659729 18.0007C0.659729 27.6101 8.4497 35.4001 18.0591 35.4001Z" fill="#FFE773"/>
<path d="M2.60965 19.2007C2.60965 21.3713 3.00714 23.4492 3.73326 25.3653C4.02388 26.1322 2.91684 26.6165 2.54471 25.8858C1.36335 23.5659 0.686946 20.9457 0.660547 18.17C0.567775 8.44251 8.38085 0.574165 18.1088 0.601389C18.931 0.603714 18.9971 1.80645 18.18 1.89667C9.8646 2.81531 2.60965 9.71747 2.60965 19.2007Z" fill="#FFF0A6"/>
<path d="M18.0591 32.2502C25.9289 32.2502 32.3086 25.8705 32.3086 18.0007C32.3086 10.1309 25.9289 3.75122 18.0591 3.75122C10.1893 3.75122 3.80963 10.1309 3.80963 18.0007C3.80963 25.8705 10.1893 32.2502 18.0591 32.2502Z" fill="#FFF0A6"/>
<path d="M5.24682 24.2439C4.26976 22.2427 3.7477 19.9787 3.81557 17.5867C4.03577 9.82113 10.5287 3.59853 18.348 3.75407C19.2507 3.772 19.3271 5.08828 18.432 5.207C10.0434 6.31928 4.15621 15.5906 6.60038 23.7142C6.85657 24.5658 5.63696 25.0429 5.24682 24.2439Z" fill="#FFF8D6"/>
<path d="M28.5845 18.425L18.4834 28.5261C18.2491 28.7604 17.8692 28.7604 17.6349 28.5261L16.0947 26.986C15.8604 26.7517 15.8604 26.3718 16.0947 26.1375L26.1958 16.0363C26.4301 15.802 26.81 15.802 27.0443 16.0363L28.5845 17.5765C28.8188 17.8108 28.8188 18.1907 28.5845 18.425Z" fill="#FFE773"/>
<path d="M24.3044 14.1447L14.2033 24.2459C13.969 24.4802 13.589 24.4802 13.3547 24.2459L11.8138 22.705C11.5795 22.4707 11.5795 22.0908 11.8138 21.8565L21.9149 11.7553C22.1492 11.521 22.5292 11.521 22.7635 11.7553L24.3044 13.2962C24.5386 13.5306 24.5386 13.9104 24.3044 14.1447Z" fill="#FFE773"/>
<path d="M20.0236 9.86394L14.2032 15.685C13.9689 15.9193 13.5891 15.9194 13.3548 15.6851L11.814 14.1448C11.5797 13.9105 11.5797 13.5306 11.814 13.2962L17.6349 7.47528C17.8692 7.24099 18.2491 7.24099 18.4834 7.47528L20.0236 9.0155C20.2578 9.24979 20.2579 9.62965 20.0236 9.86394Z" fill="#FFE773"/>
<path d="M11.4631 18.4249L9.92235 19.9651C9.68806 20.1993 9.3082 20.1993 9.07391 19.965L7.53369 18.4248C7.2994 18.1905 7.2994 17.8106 7.53369 17.5763L9.07391 16.0361C9.3082 15.8018 9.68799 15.8018 9.92235 16.036L11.4631 17.5762C11.6975 17.8106 11.6975 18.1906 11.4631 18.4249Z" fill="#FFE773"/>
<path d="M12.2383 22.281L20.8724 13.6469C21.1067 13.4126 21.1067 13.0328 20.8724 12.7985C20.638 12.5642 20.2583 12.5642 20.0239 12.7985L10.9655 21.8568C10.7313 22.0909 10.7313 22.471 10.9655 22.7053L13.3545 25.0942C13.589 25.3286 13.9687 25.3285 14.203 25.0942L25.1527 14.1446C25.3868 13.9105 25.3869 13.5304 25.1527 13.2962L22.7636 10.9072C22.5293 10.6728 22.1495 10.6729 21.9151 10.9072C21.6808 11.1415 21.6808 11.5213 21.9151 11.7556L23.88 13.7204L13.7789 23.8215L12.2383 22.281Z" fill="black"/>
<path d="M20.163 26.8465C20.3974 27.0807 20.7772 27.0807 21.0116 26.8465L29.433 18.4249C29.6673 18.1906 29.6673 17.8108 29.433 17.5765L27.044 15.1874C26.8097 14.9531 26.4299 14.9531 26.1955 15.1874L15.2459 26.1371C15.0116 26.3713 15.0116 26.7512 15.2459 26.9855L17.6349 29.3745C17.8693 29.6088 18.249 29.6088 18.4834 29.3745C18.7177 29.1402 18.7177 28.7603 18.4834 28.526L16.5186 26.5612L26.6198 16.4601L28.1603 18.0007L20.163 25.9979C19.9287 26.2322 19.9287 26.6122 20.163 26.8465Z" fill="black"/>
<path d="M18.4834 6.62689C18.2492 6.3926 17.8693 6.3926 17.6349 6.62689L10.9655 13.2962C10.7313 13.5303 10.7313 13.9104 10.9655 14.1446L13.3545 16.5336C13.5888 16.7679 13.9687 16.768 14.2031 16.5336L20.8723 9.8643C21.1066 9.63001 21.1066 9.25015 20.8723 9.01586C20.638 8.78156 20.2582 8.78156 20.0238 9.01586L13.7788 15.261L12.2382 13.7204L18.4833 7.47534C18.7177 7.24104 18.7177 6.86118 18.4834 6.62689Z" fill="black"/>
<path d="M9.9228 15.1874C9.68843 14.9531 9.30865 14.9531 9.07428 15.1874L6.68524 17.5765C6.45095 17.8108 6.45095 18.1906 6.68524 18.4249L9.07421 20.8139C9.30865 21.0483 9.68836 21.0482 9.92273 20.8139L12.3117 18.4249C12.546 18.1906 12.546 17.8108 12.3117 17.5765C12.0773 17.3422 11.6975 17.3422 11.4632 17.5765L9.49847 19.5413L7.95795 18.0007L9.92273 16.036C10.1571 15.8017 10.1571 15.4217 9.9228 15.1874Z" fill="black"/>
<path d="M35.4126 19.4086C35.0826 19.3707 34.7859 19.6069 34.7481 19.9362C33.7746 28.41 26.5999 34.8 18.0592 34.8C8.79599 34.8 1.2598 27.2639 1.2598 18.0006C1.2598 8.73742 8.79599 1.20124 18.0592 1.20124C26.4123 1.20124 33.5669 7.43142 34.7015 15.6932C34.7466 16.0215 35.0495 16.2507 35.3776 16.206C35.7059 16.1609 35.9354 15.8582 35.8904 15.5299C35.3041 11.2609 33.1897 7.3352 29.9366 4.47607C22.9075 -1.70153 12.1192 -1.53399 5.31784 5.28559C-1.69734 12.3193 -1.70342 23.693 5.33171 30.7281C8.73134 34.1278 13.2514 36 18.0591 36C27.2099 36 34.897 29.1529 35.9402 20.0731C35.978 19.744 35.7418 19.4464 35.4126 19.4086Z" fill="black"/>
<path d="M12.9358 4.05915C7.20739 6.16477 3.20966 11.6463 3.20966 18.0009C3.20966 26.189 9.87107 32.8504 18.0591 32.8504C26.4775 32.8504 33.4329 25.7835 32.8776 17.0333C32.3457 8.77078 25.1273 2.48668 16.7675 3.20688C16.4374 3.23538 16.1928 3.52607 16.2212 3.8562C16.2497 4.18627 16.5398 4.43113 16.8706 4.40241C24.5438 3.74101 31.1906 9.5068 31.68 17.1098C32.1847 25.0628 25.9003 31.6504 18.0591 31.6504C10.5328 31.6504 4.40961 25.5273 4.40961 18.0009C4.40961 12.3012 8.00236 7.15106 13.3497 5.18546C13.6608 5.07116 13.8202 4.72632 13.7059 4.41531C13.5915 4.1043 13.2469 3.94478 12.9358 4.05915Z" fill="black"/>
</g>
<defs>
<clipPath id="clip0_3_8895">
<rect width="36" height="36" fill="white"/>
</clipPath>
</defs>
</svg>
