<svg width="36" height="36" viewBox="0 0 36 36" fill="none" xmlns="http://www.w3.org/2000/svg">
<g clip-path="url(#clip0_3_8989)">
<path d="M18.0007 35.4001C27.6095 35.4001 35.3989 27.6107 35.3989 18.0019C35.3989 8.39319 27.6095 0.60376 18.0007 0.60376C8.39197 0.60376 0.602539 8.39319 0.602539 18.0019C0.602539 27.6107 8.39197 35.4001 18.0007 35.4001Z" fill="#B49EF2"/>
<path d="M3.57373 23.6188C3.81138 24.7841 2.13995 25.2613 1.71962 24.1487C0.997598 22.2375 0.602539 20.1658 0.602539 18.0019C0.602539 8.34022 8.47237 0.532483 18.1326 0.604251C19.3301 0.613175 19.445 2.35472 18.2602 2.52953C8.66922 3.94485 1.63023 14.0887 3.57373 23.6188Z" fill="#C0B3FF"/>
<path d="M18.0007 29.4757C24.3375 29.4757 29.4745 24.3387 29.4745 18.0019C29.4745 11.6651 24.3375 6.52808 18.0007 6.52808C11.6639 6.52808 6.52692 11.6651 6.52692 18.0019C6.52692 24.3387 11.6639 29.4757 18.0007 29.4757Z" fill="#C0B3FF"/>
<path d="M7.59671 22.846C6.87926 21.3078 6.4929 19.584 6.52927 17.7664C6.65653 11.4154 11.8493 6.43805 18.1698 6.52931C19.1181 6.54303 19.2272 7.91044 18.2931 8.0746C11.9502 9.18981 7.52937 16.058 9.05613 22.324C9.27946 23.2404 7.99544 23.7009 7.59671 22.846Z" fill="#D0C7FF"/>
<path d="M18.2993 22.901L20.6061 24.2327C21.1611 24.5532 21.8507 24.5533 22.4059 24.2328L24.713 22.9008C25.268 22.5803 25.6129 21.983 25.6129 21.3421V18.6782C25.6129 18.0374 25.2681 17.4401 24.713 17.1196L22.4085 15.789C21.851 15.4673 21.1592 15.4687 20.6029 15.7924L20.0504 16.1141C19.7641 16.2808 19.6671 16.6481 19.8338 16.9344C20.0006 17.2207 20.3679 17.3177 20.6542 17.151L21.2067 16.8292C21.392 16.7214 21.6227 16.721 21.8085 16.8281L24.113 18.1586C24.298 18.2655 24.4129 18.4646 24.4129 18.6782V21.3421C24.4129 21.5558 24.298 21.7549 24.113 21.8617L21.8059 23.1937C21.6209 23.3004 21.391 23.3005 21.206 23.1936L18.8993 21.8619C18.7149 21.7554 18.6005 21.5563 18.6006 21.3418V14.6617C18.6008 14.0201 18.2566 13.4226 17.702 13.1024L15.3953 11.7706C14.8402 11.4501 14.1505 11.4502 13.5955 11.7706L11.2884 13.1026C10.7334 13.423 10.3885 14.0203 10.3885 14.6612V17.3251C10.3885 17.966 10.7333 18.5633 11.2884 18.8837L13.5929 20.2143C14.1504 20.5361 14.8422 20.5347 15.3984 20.2109L15.9121 19.9119C16.1984 19.7452 16.2954 19.3779 16.1287 19.0916C15.962 18.8054 15.5947 18.7085 15.3084 18.875L14.7947 19.1741C14.6093 19.2819 14.3787 19.2823 14.1928 19.1752L11.8884 17.8447C11.7033 17.7378 11.5884 17.5387 11.5884 17.3251V14.6612C11.5884 14.4476 11.7034 14.2485 11.8884 14.1417L14.1955 12.8097C14.3804 12.7029 14.6102 12.7027 14.7954 12.8097L17.1021 14.1414C17.2864 14.2479 17.4009 14.447 17.4008 14.6615V21.3416C17.4006 21.9832 17.7448 22.5808 18.2993 22.901Z" fill="black"/>
<path d="M30.7274 5.27509C23.6945 -1.75783 12.2928 -1.76368 5.26033 5.28746C-0.9764 11.5408 -1.59568 21.0758 3.02773 27.992C3.21191 28.2674 3.58448 28.3414 3.85992 28.1573C4.13537 27.9732 4.20946 27.6006 4.02528 27.3251C2.1786 24.5628 1.2025 21.3388 1.2025 18.0016C1.2025 8.73905 8.73817 1.20339 18.0008 1.20339C27.2633 1.20339 34.799 8.73905 34.799 18.0016C34.799 27.2642 27.2633 34.7999 18.0008 34.7999C13.9198 34.7999 9.98543 33.3188 6.92245 30.6294C6.6734 30.4107 6.29439 30.4355 6.07579 30.6844C5.85719 30.9334 5.88179 31.3125 6.13076 31.5311C9.41279 34.4128 13.6283 35.9998 18.0007 35.9998C28.0064 35.9998 35.9988 27.8849 35.9988 18.0016C35.9989 13.1942 34.1268 8.67441 30.7274 5.27509Z" fill="black"/>
<path d="M5.927 18.0018C5.927 24.6592 11.3432 30.0755 18.0007 30.0755C24.6583 30.0755 30.0745 24.6592 30.0745 18.0018C30.0745 13.608 27.6836 9.55674 23.8348 7.42869C23.5447 7.26813 23.1799 7.3735 23.0195 7.66342C22.8592 7.95334 22.9643 8.3184 23.2542 8.47873C26.721 10.3956 28.8746 14.0447 28.8746 18.0018C28.8746 23.9976 23.9966 28.8756 18.0007 28.8756C12.0049 28.8756 7.12688 23.9976 7.12688 18.0018C7.12688 11.131 13.4087 6.06076 19.9994 7.30803C20.3252 7.36975 20.6387 7.15572 20.7004 6.8301C20.762 6.50456 20.5481 6.19072 20.2225 6.12908C12.8987 4.74247 5.927 10.3728 5.927 18.0018Z" fill="black"/>
<path d="M24.0988 4.85756C24.2255 4.55144 24.0801 4.20048 23.774 4.07374C20.1046 2.5544 15.8957 2.55455 12.2266 4.07404C11.9204 4.20078 11.775 4.55174 11.9018 4.85786C12.0284 5.16353 12.3789 5.30954 12.6857 5.18265C16.0632 3.78397 19.9374 3.78389 23.315 5.18235C23.621 5.30901 23.9721 5.16368 24.0988 4.85756Z" fill="black"/>
<path d="M23.315 30.8214C19.9374 32.2199 16.0631 32.2199 12.6857 30.8211C12.3798 30.6945 12.0286 30.8398 11.9019 31.1459C11.7751 31.452 11.9205 31.803 12.2266 31.9297C15.8952 33.4489 20.1042 33.4496 23.774 31.93C24.0802 31.8033 24.2256 31.4523 24.0988 31.1462C23.9721 30.8401 23.6211 30.6949 23.315 30.8214Z" fill="black"/>
<path d="M31.1446 24.1003C31.452 24.2274 31.8022 24.0805 31.9285 23.7755C33.4478 20.1061 33.4477 15.8972 31.9282 12.228C31.8014 11.9217 31.4503 11.7765 31.1443 11.9032C30.8382 12.03 30.6928 12.3809 30.8196 12.687C32.2183 16.0646 32.2185 19.9389 30.8199 23.3164C30.6931 23.6226 30.8385 23.9735 31.1446 24.1003Z" fill="black"/>
<path d="M4.85636 11.9031C4.55039 11.7766 4.19928 11.9218 4.07254 12.2279C2.55297 15.8972 2.5529 20.1061 4.07224 23.7754C4.19905 24.0816 4.54994 24.2268 4.85606 24.1002C5.16218 23.9734 5.30759 23.6225 5.18085 23.3164C3.78232 19.9388 3.7824 16.0645 5.18108 12.687C5.30781 12.3808 5.16248 12.0299 4.85636 11.9031Z" fill="black"/>
</g>
<defs>
<clipPath id="clip0_3_8989">
<rect width="36" height="36" fill="white"/>
</clipPath>
</defs>
</svg>
