<svg width="36" height="36" viewBox="0 0 36 36" fill="none" xmlns="http://www.w3.org/2000/svg">
<g clip-path="url(#clip0_3_9004)">
<path d="M18.0003 35.3999C27.6094 35.3999 35.399 27.6103 35.399 18.0012C35.399 8.3922 27.6094 0.602539 18.0003 0.602539C8.39128 0.602539 0.601624 8.3922 0.601624 18.0012C0.601624 27.6103 8.39128 35.3999 18.0003 35.3999Z" fill="#42434D"/>
<path d="M3.5729 23.6184C3.81056 24.7839 2.13908 25.261 1.71874 24.1484C0.996694 22.2371 0.601624 20.1654 0.601624 18.0014C0.601624 8.33947 8.47168 0.531504 18.1322 0.603274C19.3297 0.612198 19.4446 2.35379 18.2598 2.5286C8.66854 3.94405 1.62935 14.0882 3.5729 23.6184Z" fill="#585966"/>
<path d="M18.0078 29.1334C24.1584 29.1334 29.1445 24.1474 29.1445 17.9968C29.1445 11.8462 24.1584 6.86011 18.0078 6.86011C11.8572 6.86011 6.87115 11.8462 6.87115 17.9968C6.87115 24.1474 11.8572 29.1334 18.0078 29.1334Z" fill="#585966"/>
<path d="M8.02782 22.9448C7.28965 21.4588 6.87365 19.7843 6.87111 18.0129C6.86218 11.7492 12.0931 6.65194 18.3938 6.86665C19.3203 6.89822 19.3988 8.23305 18.4837 8.38146C12.1956 9.40131 7.83216 16.2505 9.44806 22.4182C9.67889 23.2992 8.43294 23.7603 8.02782 22.9448Z" fill="#6E6F80"/>
<path d="M30.7273 5.2742C25.1944 -0.25866 17.1094 -1.34758 10.6107 1.5802C3.76382 4.66457 -0.614051 11.8005 0.0714729 19.5974C0.100496 19.9276 0.392674 20.1714 0.721674 20.1427C1.05172 20.1136 1.29583 19.8224 1.26681 19.4924C0.424621 9.91433 7.87464 1.20238 18.0003 1.20238C27.2632 1.20238 34.799 8.73827 34.799 18.0011C34.799 27.264 27.2632 34.7999 18.0003 34.7999C10.6135 34.7999 4.16954 30.0677 1.96538 23.0245C1.86639 22.7083 1.52974 22.5324 1.21364 22.6312C0.897386 22.7301 0.721299 23.0668 0.820217 23.3829C3.0762 30.5917 9.82967 35.9997 18.0002 35.9997C28.0062 35.9997 35.9989 27.8846 35.9989 18.001C35.999 13.1935 34.1268 8.67362 30.7273 5.2742Z" fill="black"/>
<path d="M10.1869 18.4863C10.1869 13.8476 13.9903 10.0983 18.6659 10.204C19.0088 10.2093 19.2721 9.94035 19.2796 9.6181C19.2872 9.28678 19.0249 9.01207 18.6936 9.00442C16.117 8.94375 13.6848 9.90278 11.8448 11.7009C7.86609 15.5891 8.12422 21.9116 12.1073 25.5184C12.3523 25.7403 12.7317 25.7226 12.9547 25.4764C13.177 25.2308 13.1583 24.8514 12.9126 24.629C11.1804 23.0605 10.1869 20.8214 10.1869 18.4863Z" fill="black"/>
<path d="M18.604 25.8255H22.5373C22.8686 25.8255 23.1372 25.5569 23.1372 25.2256C23.1372 24.8942 22.8686 24.6256 22.5373 24.6256H18.604C15.3652 24.6256 12.7302 21.9907 12.7302 18.7519C12.7302 14.4639 17.1716 11.659 21.0179 13.3954C21.3198 13.5316 21.6754 13.3974 21.8115 13.0955C21.9479 12.7935 21.8136 12.4381 21.5116 12.3019C16.8675 10.2054 11.5303 13.5972 11.5303 18.7519C11.5303 22.6523 14.7035 25.8255 18.604 25.8255Z" fill="black"/>
<path d="M25.5513 22.8711C25.5513 22.5398 25.2827 22.2711 24.9514 22.2711H18.7574C16.9172 22.2711 15.4202 20.774 15.4202 18.9339C15.4202 17.0938 16.9172 15.5966 18.7574 15.5966C20.0301 15.5966 21.1746 16.3043 21.7443 17.4434C21.8927 17.7398 22.253 17.8597 22.5492 17.7116C22.8456 17.5634 22.9658 17.203 22.8175 16.9067C22.0432 15.3585 20.4874 14.3967 18.7574 14.3967C16.2556 14.3967 14.2202 16.4322 14.2202 18.9339C14.2202 21.4356 16.2556 23.471 18.7574 23.471H24.9513C25.2827 23.471 25.5513 23.2024 25.5513 22.8711Z" fill="black"/>
<path d="M6.27087 17.9963C6.27087 24.4679 11.5359 29.7329 18.0075 29.7329C22.5899 29.7329 26.632 27.0933 28.5626 23.1342C28.7078 22.8363 28.5841 22.4771 28.2862 22.332C27.9883 22.1866 27.6292 22.3104 27.4841 22.6083C25.702 26.2628 22.0708 28.5331 18.0075 28.5331C12.1975 28.5331 7.47078 23.8063 7.47078 17.9964C7.47078 12.1864 12.1975 7.45968 18.0075 7.45968C24.4497 7.45968 29.3832 13.193 28.4272 19.5719C28.3782 19.8995 28.604 20.205 28.9317 20.2542C29.2587 20.3025 29.5648 20.0774 29.614 19.7497C30.6777 12.6512 25.1893 6.25977 18.0075 6.25977C11.5359 6.25969 6.27087 11.5247 6.27087 17.9963Z" fill="black"/>
<path d="M11.3133 5.76205C11.5437 5.76205 11.5555 5.6848 12.3021 5.34785C12.6041 5.21151 12.7384 4.85619 12.602 4.55419C12.4658 4.25219 12.1103 4.11795 11.8084 4.25414C11.5484 4.3715 11.2881 4.49802 11.035 4.63016C10.7413 4.78345 10.6274 5.14589 10.7807 5.43965C10.888 5.64461 11.0969 5.76205 11.3133 5.76205Z" fill="black"/>
<path d="M17.5897 4.13299C17.8536 4.12526 18.1199 4.12526 18.3805 4.13246C18.7093 4.14019 18.9877 3.88056 18.9968 3.54931C19.006 3.21813 18.7449 2.94215 18.4137 2.933C18.1309 2.9252 17.8416 2.92528 17.5551 2.93353C17.2239 2.94313 16.9631 3.21941 16.9727 3.55058C16.9821 3.87711 17.2524 4.14139 17.5897 4.13299Z" fill="black"/>
<path d="M32.5166 13.9253C32.427 13.6062 32.096 13.4202 31.7768 13.5098C31.4578 13.5993 31.2718 13.9305 31.3613 14.2495C31.4321 14.5016 31.4965 14.7595 31.5527 15.016C31.6142 15.2963 31.8625 15.4875 32.1382 15.4875C32.5219 15.4875 32.8069 15.1329 32.7248 14.7589C32.6636 14.4801 32.5935 14.1995 32.5166 13.9253Z" fill="black"/>
<path d="M4.1061 13.8887C3.7846 13.8082 3.4589 14.0036 3.37835 14.3249C3.30921 14.601 3.24704 14.8831 3.19364 15.1636C3.12315 15.534 3.40738 15.876 3.7837 15.876C4.06605 15.876 4.31766 15.6757 4.3724 15.3882C4.42152 15.1301 4.47874 14.8704 4.54234 14.6164C4.62281 14.2951 4.42752 13.9692 4.1061 13.8887Z" fill="black"/>
<path d="M31.6597 20.443C31.6139 20.7015 31.5599 20.9619 31.4994 21.2168C31.4229 21.5393 31.6224 21.8625 31.9447 21.939C32.2673 22.0156 32.5905 21.8159 32.6669 21.4937C32.7326 21.2166 32.7912 20.9336 32.8411 20.6527C32.899 20.3264 32.6814 20.015 32.3552 19.9571C32.029 19.899 31.7177 20.1167 31.6597 20.443Z" fill="black"/>
<path d="M3.70276 20.3499C3.37826 20.4168 3.1694 20.7341 3.23637 21.0586C3.29397 21.3381 3.36042 21.6193 3.43391 21.8945C3.51955 22.2153 3.84878 22.4049 4.16826 22.3195C4.48841 22.234 4.67867 21.9053 4.59325 21.5852C4.52568 21.3319 4.46456 21.0732 4.41154 20.8162C4.34457 20.4917 4.02697 20.283 3.70276 20.3499Z" fill="black"/>
<path d="M24.0711 5.52186C24.3696 5.66712 24.7283 5.54256 24.8732 5.24521C25.0183 4.94733 24.8944 4.58818 24.5965 4.44314C24.3408 4.31865 24.0781 4.19978 23.8154 4.08984C23.5101 3.96205 23.1583 4.10589 23.0303 4.41172C22.9024 4.71732 23.0465 5.06882 23.3522 5.19676C23.594 5.29785 23.8358 5.40727 24.0711 5.52186Z" fill="black"/>
<path d="M11.7736 30.4035C11.4775 30.2546 11.1169 30.3738 10.968 30.6698C10.8192 30.9659 10.9384 31.3265 11.2344 31.4754C11.4883 31.6031 11.7497 31.7253 12.0111 31.8387C12.3148 31.97 12.6682 31.8315 12.8001 31.5267C12.9319 31.2227 12.7923 30.8694 12.4882 30.7377C12.2477 30.6334 12.0073 30.5209 11.7736 30.4035Z" fill="black"/>
<path d="M6.15429 26.3409C5.89158 26.5429 5.84239 26.9196 6.04435 27.1823C6.21833 27.4087 6.40095 27.6327 6.58701 27.8481C6.80247 28.0976 7.18126 28.1277 7.43317 27.9101C7.68395 27.6935 7.7117 27.3147 7.49511 27.0639C7.3239 26.8655 7.15584 26.6594 6.99558 26.451C6.79362 26.1882 6.41699 26.1389 6.15429 26.3409Z" fill="black"/>
<path d="M17.7941 31.8738C17.4603 31.8674 17.1902 32.1335 17.1854 32.4649C17.1805 32.7962 17.4451 33.0687 17.7764 33.0736C18.0678 33.078 18.3547 33.074 18.6344 33.0625C18.9655 33.0489 19.2229 32.7695 19.2092 32.4385C19.1957 32.1074 18.9141 31.8489 18.5852 31.8636C18.3222 31.8744 18.0574 31.8777 17.7941 31.8738Z" fill="black"/>
<path d="M24.5641 30.2272C24.3329 30.3516 24.0949 30.471 23.8568 30.5821C23.5565 30.7221 23.4267 31.0792 23.5668 31.3795C23.7067 31.6792 24.063 31.8097 24.3642 31.6695C24.6229 31.5487 24.8814 31.419 25.1327 31.2838C25.4245 31.1267 25.5337 30.7629 25.3767 30.4711C25.2196 30.1794 24.8557 30.0704 24.5641 30.2272Z" fill="black"/>
<path d="M29.289 8.01191C29.0693 7.76398 28.6902 7.74096 28.4421 7.96062C28.194 8.18028 28.1711 8.55945 28.3908 8.80753C28.5644 9.00357 28.7351 9.2077 28.8979 9.41408C29.0163 9.56422 29.1919 9.64252 29.3693 9.64252C29.8636 9.64252 30.1526 9.06724 29.84 8.67104C29.6631 8.44673 29.4778 8.22497 29.289 8.01191Z" fill="black"/>
<path d="M7.28633 8.25109C7.03232 8.03818 6.65397 8.0714 6.44106 8.32541C6.25778 8.54409 6.07862 8.77065 5.90853 8.99871C5.6108 9.39798 5.9035 9.95736 6.38902 9.95736C6.572 9.95736 6.75267 9.87397 6.87048 9.71595C7.027 9.50605 7.19191 9.29756 7.36065 9.09628C7.57355 8.84242 7.54026 8.464 7.28633 8.25109Z" fill="black"/>
<path d="M29.2333 26.1463C29.0792 26.3583 28.917 26.5689 28.7509 26.7722C28.5413 27.0287 28.5793 27.4067 28.8359 27.6164C29.0925 27.8261 29.4705 27.7878 29.6802 27.5313C29.8605 27.3105 30.0368 27.0818 30.2041 26.8515C30.3988 26.5834 30.3394 26.2082 30.0712 26.0135C29.8031 25.8187 29.4279 25.8783 29.2333 26.1463Z" fill="black"/>
</g>
<defs>
<clipPath id="clip0_3_9004">
<rect width="36" height="36" fill="white"/>
</clipPath>
</defs>
</svg>
