<svg width="36" height="36" viewBox="0 0 36 36" fill="none" xmlns="http://www.w3.org/2000/svg">
<g clip-path="url(#clip0_3_8974)">
<path d="M18.0017 35.3999C27.6103 35.3999 35.3996 27.6105 35.3996 18.0019C35.3996 8.39332 27.6103 0.604004 18.0017 0.604004C8.39308 0.604004 0.60376 8.39332 0.60376 18.0019C0.60376 27.6105 8.39308 35.3999 18.0017 35.3999Z" fill="#FF6D7A"/>
<path d="M2.55352 19.2018C2.55352 21.3723 2.95097 23.45 3.67704 25.3659C3.96763 26.1328 2.86068 26.6171 2.48858 25.8863C1.30732 23.5666 0.630974 20.9467 0.604577 18.1713C0.511813 8.44454 8.32424 0.576853 18.0514 0.604074C18.8735 0.606399 18.9396 1.80903 18.1226 1.89925C9.80786 2.81781 2.55352 9.71939 2.55352 19.2018Z" fill="#FF8C95"/>
<path d="M18.0017 32.25C25.8708 32.25 32.25 25.8708 32.25 18.0017C32.25 10.1326 25.8708 3.75342 18.0017 3.75342C10.1326 3.75342 3.75342 10.1326 3.75342 18.0017C3.75342 25.8708 10.1326 32.25 18.0017 32.25Z" fill="#FF8C95"/>
<path d="M5.19049 24.2446C4.21351 22.2436 3.6915 19.9798 3.75929 17.5879C3.97946 9.82307 10.4719 3.60098 18.2905 3.75652C19.1931 3.77444 19.2695 5.09061 18.3745 5.20932C9.98662 6.32151 4.09997 15.5921 6.54393 23.715C6.8001 24.5665 5.5806 25.0436 5.19049 24.2446Z" fill="#FFB5BB"/>
<path d="M27.9088 22.467C28.3707 23.2671 27.7933 24.2668 26.8694 24.2668H20.9249C20.0017 24.2668 19.4243 23.2671 19.8862 22.467L22.8581 17.3196C23.3201 16.5194 24.4749 16.5194 24.9361 17.3196L27.9088 22.467Z" fill="#FF6D7A"/>
<path d="M21.5112 11.3861C21.9469 12.1413 21.9469 13.0719 21.5112 13.8271L16.1764 23.0667C15.7474 23.8091 14.9555 24.2666 14.0976 24.2666H9.13397C8.21008 24.2666 7.63264 23.267 8.09459 22.4668L16.9623 7.10712C17.4242 6.30772 18.5791 6.30772 19.041 7.10712L21.5112 11.3861Z" fill="#FF6D7A"/>
<path d="M10.7915 5.01892C6.08024 7.64069 3.15356 12.6155 3.15356 18.0019C3.15356 26.1893 9.81442 32.8501 18.0018 32.8501C22.1577 32.8501 26.039 31.1352 28.8303 28.1614C34.9742 21.6152 33.9026 11.3036 26.8339 6.06925C23.3121 3.46151 18.8452 2.54317 14.5788 3.5503C14.2563 3.62641 14.0566 3.94947 14.1326 4.27201C14.2088 4.59447 14.5318 4.7938 14.8544 4.71806C18.7766 3.79252 22.8827 4.63632 26.1199 7.03348C32.6379 11.86 33.5859 21.3411 27.9554 27.3402C25.3468 30.1196 21.8119 31.6503 18.0018 31.6503C10.4761 31.6503 4.35342 25.5276 4.35342 18.0019C4.35342 13.0506 7.04388 8.47751 11.3749 6.06737C11.6645 5.90629 11.7685 5.54093 11.6074 5.25139C11.4463 4.96185 11.081 4.85769 10.7915 5.01892Z" fill="black"/>
<path d="M30.7281 5.2755C23.6953 -1.75731 12.2938 -1.76316 5.26143 5.28788C-1.75301 12.321 -1.75923 23.6939 5.27531 30.7282C12.6525 38.1054 24.6497 37.6504 31.4839 29.9236C31.7034 29.6754 31.6802 29.2963 31.432 29.0769C31.1838 28.8574 30.8047 28.8806 30.5852 29.1287C27.3974 32.7328 22.8109 34.7999 18.0017 34.7999C8.73929 34.7999 1.20374 27.2643 1.20374 18.0019C1.20374 8.73942 8.73929 1.20386 18.0017 1.20386C27.2642 1.20386 34.7997 8.73942 34.7997 18.0019C34.7997 20.8784 34.059 23.7181 32.6576 26.2138C32.4953 26.5028 32.598 26.8684 32.887 27.0307C33.1758 27.1928 33.5415 27.0903 33.7038 26.8013C37.5294 19.9887 36.5998 11.1471 30.7281 5.2755Z" fill="black"/>
<path d="M28.4282 22.1672L25.456 17.0193C24.7636 15.8198 23.0321 15.8184 22.3387 17.0193L19.809 21.401C19.6433 21.6879 19.7416 22.0549 20.0286 22.2205C20.3155 22.3861 20.6823 22.2879 20.8481 22.0009L23.3778 17.6192C23.6091 17.2187 24.1861 17.2194 24.4169 17.6192L27.3891 22.7671C27.6204 23.1677 27.3313 23.667 26.8695 23.667H20.9252C20.5938 23.667 20.3252 23.9356 20.3252 24.267C20.3252 24.5983 20.5938 24.8669 20.9252 24.8669H26.8695C28.2546 24.8669 29.1216 23.3682 28.4282 22.1672Z" fill="black"/>
<path d="M17.4822 7.40755C17.7131 7.00777 18.29 7.00702 18.5213 7.40755L20.5033 10.8405C20.6689 11.1275 21.036 11.2259 21.3228 11.0601C21.6097 10.8944 21.708 10.5275 21.5424 10.2406L19.5604 6.80762C18.8677 5.60813 17.1364 5.60671 16.443 6.80762L7.5752 22.1671C6.88266 23.3666 7.74708 24.8668 9.13382 24.8668H14.0979C15.1662 24.8668 16.1616 24.2921 16.6957 23.367L22.0304 14.1269C22.2296 13.782 22.3575 13.4071 22.4106 13.0127C22.4549 12.6843 22.2245 12.3823 21.8961 12.3381C21.568 12.2939 21.2657 12.5241 21.2215 12.8526C21.1894 13.0913 21.1119 13.3181 20.9913 13.527L15.6565 22.7671C15.3361 23.3222 14.7389 23.667 14.0979 23.667H9.13374C8.67127 23.667 8.38338 23.1669 8.6142 22.7671L17.4822 7.40755Z" fill="black"/>
<path d="M14.3272 27.1509C13.9959 27.1509 13.7273 27.4195 13.7273 27.7508C13.7273 28.0821 13.9959 28.3507 14.3272 28.3507H21.6764C22.0077 28.3507 22.2763 28.0821 22.2763 27.7508C22.2763 27.4195 22.0077 27.1509 21.6764 27.1509H14.3272Z" fill="black"/>
</g>
<defs>
<clipPath id="clip0_3_8974">
<rect width="36" height="36" fill="white"/>
</clipPath>
</defs>
</svg>
