<svg width="36" height="36" viewBox="0 0 36 36" fill="none" xmlns="http://www.w3.org/2000/svg">
<g clip-path="url(#clip0_3_8928)">
<path d="M18.0001 35.4003C27.6076 35.4003 35.3961 27.6118 35.3961 18.0042C35.3961 8.39663 27.6076 0.608154 18.0001 0.608154C8.39248 0.608154 0.604004 8.39663 0.604004 18.0042C0.604004 27.6118 8.39248 35.4003 18.0001 35.4003Z" fill="#B5D5F5"/>
<path d="M2.55357 19.2039C2.55357 21.3742 2.95098 23.4516 3.67696 25.3674C3.96752 26.1342 2.8607 26.6184 2.48863 25.8878C1.30742 23.5683 0.631228 20.9486 0.604759 18.1734C0.51208 8.44784 8.32366 0.581006 18.0498 0.608225C18.8717 0.610549 18.9379 1.81305 18.1209 1.90326C9.80705 2.82172 2.55357 9.72256 2.55357 19.2039Z" fill="#CBE3FA"/>
<path d="M18.0001 32.2509C25.8683 32.2509 32.2468 25.8724 32.2468 18.0041C32.2468 10.1358 25.8683 3.75732 18.0001 3.75732C10.1318 3.75732 3.7533 10.1358 3.7533 18.0041C3.7533 25.8724 10.1318 32.2509 18.0001 32.2509Z" fill="#CBE3FA"/>
<path d="M5.19009 24.2461C4.21321 22.2453 3.69126 19.9817 3.75912 17.5901C3.97927 9.82607 10.471 3.60466 18.2888 3.76018C19.1913 3.7781 19.2676 5.09412 18.3728 5.21282C9.98578 6.32497 4.09976 15.5945 6.54346 23.7166C6.7996 24.568 5.58023 25.045 5.19009 24.2461Z" fill="#EEF7FF"/>
<path d="M9.77003 30.362C14.0745 33.2331 19.4682 33.5925 23.9995 31.5885C29.4434 29.1808 33.2306 23.5758 32.8156 17.0367C32.3153 9.26273 25.8532 3.15747 18 3.15747C9.81352 3.15747 3.15338 9.81761 3.15338 18.0041C3.15338 21.6488 4.4859 25.1527 6.90545 27.8704C7.12568 28.1178 7.50494 28.1398 7.75239 27.9195C7.99983 27.6992 8.0218 27.3201 7.8015 27.0726C5.57773 24.5749 4.35311 21.3543 4.35311 18.0041C4.35311 10.4792 10.4751 4.3572 18 4.3572C25.1761 4.3572 31.1579 9.96053 31.6183 17.1132C31.8607 20.932 30.5588 24.5645 27.9526 27.3414C23.1831 32.4231 15.7357 32.8989 10.4357 29.3639C10.1602 29.1801 9.78765 29.2545 9.60387 29.53C9.42001 29.8057 9.49447 30.1781 9.77003 30.362Z" fill="black"/>
<path d="M26.0472 1.9034C25.7508 1.75493 25.3905 1.87498 25.2422 2.17116C25.0939 2.46742 25.2138 2.82778 25.51 2.9761C31.2379 5.84435 34.7962 11.6027 34.7962 18.0041C34.7962 27.2656 27.2615 34.8003 18.0001 34.8003C8.73862 34.8003 1.20388 27.2656 1.20388 18.0041C1.20388 7.32309 11.073 -0.697539 21.5897 1.59229C21.9136 1.66202 22.233 1.45747 22.3035 1.13369C22.374 0.810068 22.1687 0.490491 21.845 0.419932C10.5943 -2.02856 0.00415039 6.54237 0.00415039 18.0041C0.00415039 27.9499 8.0529 36 18.0001 36C28.0045 36 35.996 27.8861 35.996 18.0041C35.996 11.074 32.0519 4.91014 26.0472 1.9034Z" fill="black"/>
<path d="M21.9186 6.99375C21.492 6.7619 21.0028 6.70979 20.5407 6.84708C19.5792 7.13284 19.0296 8.15591 19.3155 9.12776C19.5543 9.93893 20.2912 10.4492 21.0677 10.4492C21.7122 10.4492 22.3358 10.1058 22.6654 9.49015C23.1435 8.59703 22.812 7.47934 21.9186 6.99375Z" fill="black"/>
<path d="M28.3112 14.8356C28.2692 13.3488 26.4572 12.6581 25.452 13.738C24.465 14.7979 25.2098 16.5531 26.6579 16.5531C27.5888 16.5532 28.3379 15.7749 28.3112 14.8356Z" fill="black"/>
<path d="M21.9368 11.6053C20.5601 12.0107 20.3651 13.908 21.6359 14.5985C22.894 15.2823 24.3511 14.0922 23.9454 12.7133C23.6917 11.8512 22.7905 11.3545 21.9368 11.6053Z" fill="black"/>
<path d="M23.7566 18.7624C23.7711 19.4149 24.3057 19.9321 24.9534 19.9321C25.6322 19.9321 26.1743 19.3707 26.155 18.6998C26.136 18.0381 25.584 17.5176 24.9219 17.533C24.2647 17.5514 23.7419 18.1029 23.7566 18.7624Z" fill="black"/>
<path d="M22.2307 17.9537C22.8705 17.76 23.2295 17.0799 23.0299 16.4389C22.7194 15.4419 21.3424 15.2702 20.8315 16.2153C20.319 17.1633 21.2158 18.2614 22.2307 17.9537Z" fill="black"/>
<path d="M23.8298 21.176C23.8183 20.6892 23.417 20.2887 22.9133 20.299C22.1102 20.3179 21.7413 21.3054 22.3167 21.8521C22.8918 22.3984 23.8487 21.9757 23.8298 21.176Z" fill="black"/>
<path d="M20.1945 18.9703C19.7062 19.1141 19.426 19.63 19.5698 20.1204C19.7996 20.903 20.869 21.0329 21.2663 20.3087C21.6624 19.5861 20.9819 18.7387 20.1945 18.9703Z" fill="black"/>
<path d="M7.14573 19.8653C6.52734 20.6572 6.64799 21.8126 7.45046 22.4358C8.24183 23.0504 9.39379 22.9031 10.0179 22.1037C10.6412 21.3058 10.5074 20.1567 9.71277 19.5362C8.92155 18.9184 7.76988 19.0658 7.14573 19.8653Z" fill="black"/>
<path d="M9.41946 11.467C8.68612 12.0245 8.53863 13.0688 9.09066 13.7951C9.97636 14.9602 11.8577 14.4703 12.0681 13.004C12.2777 11.5435 10.6037 10.5669 9.41946 11.467Z" fill="black"/>
<path d="M10.2368 16.2518C9.6837 16.9602 9.80434 17.9821 10.5057 18.5299C11.6376 19.414 13.2929 18.4675 13.1142 17.0316C12.9374 15.6108 11.1218 15.1189 10.2368 16.2518Z" fill="black"/>
<path d="M13.8167 10.9695C13.2898 11.3704 13.1864 12.1249 13.5863 12.6515C14.2229 13.4895 15.584 13.1528 15.7305 12.0898C15.876 11.0335 14.6617 10.3265 13.8167 10.9695Z" fill="black"/>
<path d="M15.4955 14.5943C14.9653 14.187 14.2036 14.2911 13.7985 14.8268C13.2099 15.6055 13.7466 16.7536 14.746 16.7536C15.1113 16.7536 15.4725 16.5895 15.7119 16.2728C16.1106 15.7453 16.0135 14.9923 15.4955 14.5943Z" fill="black"/>
<path d="M17.1833 11.4172C16.7872 11.7154 16.7068 12.2792 17.0039 12.6741C17.4838 13.3114 18.5049 13.0476 18.6152 12.2542C18.7246 11.4673 17.8229 10.9355 17.1833 11.4172Z" fill="black"/>
<path d="M17.9712 14.007C17.4598 14.0688 17.0999 14.5341 17.1591 15.0383C17.256 15.8617 18.3018 16.1407 18.8063 15.4957C19.312 14.8493 18.7861 13.9099 17.9712 14.007Z" fill="black"/>
<path d="M25.1781 26.356C26.1874 26.4811 27.1054 25.7703 27.226 24.7727C27.3463 23.7768 26.6261 22.8656 25.6208 22.7415C24.6144 22.6168 23.6991 23.3245 23.5757 24.3236C23.4526 25.32 24.1714 26.2317 25.1781 26.356Z" fill="black"/>
<path d="M15.8697 26.568C15.4341 27.6565 16.2545 28.8462 17.4317 28.8462C18.0805 28.8462 18.7098 28.4642 18.9719 27.8096C19.3129 26.9574 18.8885 25.9942 18.0355 25.6529C17.1802 25.3101 16.2095 25.7193 15.8697 26.568Z" fill="black"/>
<path d="M19.0734 23.7638C18.9586 24.7161 19.7061 25.5761 20.6954 25.5761C21.5036 25.5761 22.2038 24.9809 22.305 24.1611C22.4809 22.7371 20.8175 21.8032 19.6785 22.6945C19.3394 22.9598 19.1244 23.3396 19.0734 23.7638Z" fill="black"/>
<path d="M14.1153 25.2086C14.7511 25.4619 15.4243 25.178 15.6791 24.5422C16.0725 23.5602 15.0747 22.5739 14.094 22.9923C13.1556 23.3927 13.0702 24.7918 14.1153 25.2086Z" fill="black"/>
<path d="M16.3635 21.9058C16.2868 22.57 16.768 23.1698 17.4355 23.2416C18.0843 23.3111 18.6778 22.8435 18.7624 22.2032C18.8476 21.5586 18.38 20.931 17.6916 20.8569C17.0337 20.7848 16.4385 21.2568 16.3635 21.9058Z" fill="black"/>
<path d="M12.7517 20.4324C12.0203 20.7435 12.0261 21.7912 12.7704 22.0932C12.9869 22.181 13.2298 22.1842 13.4552 22.0907C14.1912 21.7851 14.1917 20.7313 13.4438 20.427C13.2197 20.336 12.9739 20.3379 12.7517 20.4324Z" fill="black"/>
<path d="M15.4338 18.6026C14.6185 18.5026 14.0847 19.438 14.5865 20.0843C15.0906 20.7336 16.1391 20.4543 16.2407 19.6331C16.303 19.1281 15.9412 18.6658 15.4338 18.6026Z" fill="black"/>
</g>
<defs>
<clipPath id="clip0_3_8928">
<rect width="36" height="36" fill="white"/>
</clipPath>
</defs>
</svg>
