<svg width="36" height="36" viewBox="0 0 36 36" fill="none" xmlns="http://www.w3.org/2000/svg">
<g clip-path="url(#clip0_3_8959)">
<path d="M18.0004 35.3979C27.6083 35.3979 35.3971 27.6091 35.3971 18.0012C35.3971 8.39326 27.6083 0.604492 18.0004 0.604492C8.39247 0.604492 0.603699 8.39326 0.603699 18.0012C0.603699 27.6091 8.39247 35.3979 18.0004 35.3979Z" fill="#BEFA91"/>
<path d="M2.55332 19.2012C2.55332 21.3715 2.95075 23.4491 3.67676 25.3649C3.96733 26.1317 2.86046 26.6159 2.48838 25.8853C1.30721 23.5658 0.630985 20.9459 0.604515 18.1708C0.511833 8.44472 8.32363 0.577587 18.0501 0.604807C18.8721 0.607131 18.9382 1.80968 18.1213 1.89989C9.80714 2.81839 2.55332 9.71948 2.55332 19.2012Z" fill="#DAFFBF"/>
<path d="M18.0004 32.2485C25.869 32.2485 32.2477 25.8698 32.2477 18.0012C32.2477 10.1326 25.869 3.75391 18.0004 3.75391C10.1318 3.75391 3.75311 10.1326 3.75311 18.0012C3.75311 25.8698 10.1318 32.2485 18.0004 32.2485Z" fill="#DAFFBF"/>
<path d="M5.19009 24.2436C4.21317 22.2428 3.6912 19.9791 3.75898 17.5875C3.97914 9.82313 10.4711 3.60148 18.2892 3.757C19.1917 3.77493 19.2681 5.091 18.3732 5.2097C9.98588 6.32182 4.09964 15.5917 6.5435 23.7141C6.79966 24.5655 5.58016 25.0425 5.19009 24.2436Z" fill="#E9FFD9"/>
<path d="M26.3238 12.6399V21.522C26.3238 21.8617 26.1641 22.1811 25.8934 22.3858L22.7072 24.7869C22.9787 24.5822 23.1377 24.2627 23.1377 23.9231V17.2981C23.1377 16.8519 22.8632 16.4515 22.447 16.2902L16.0493 13.8097V9.29858C16.0493 8.63345 16.7174 8.17604 17.3375 8.41599L25.6332 11.6321C26.0494 11.7934 26.3238 12.1938 26.3238 12.6399Z" fill="#BEFA91"/>
<path d="M22.4471 16.2901C22.8633 16.4514 23.1377 16.8518 23.1377 17.298V23.9229C23.1377 24.2626 22.9787 24.5821 22.7073 24.7868L19.6816 27.0671C19.8466 26.8984 19.9516 26.6674 19.9516 26.4042V21.9568C19.9516 21.5099 19.6779 21.1095 19.2617 20.9483L12.8632 18.4685V13.9566C12.8632 13.2915 13.5314 12.8339 14.1514 13.074L22.4471 16.2901Z" fill="#9CEB63"/>
<path d="M19.9516 21.9569V26.4043C19.9516 27.0704 19.2836 27.5265 18.664 27.2869L10.3676 24.0708C9.95145 23.9096 9.677 23.5091 9.677 23.063V18.6148C9.677 17.9497 10.3451 17.4923 10.9653 17.733L19.2617 20.9484C19.6779 21.1096 19.9516 21.51 19.9516 21.9569Z" fill="#BEFA91"/>
<path d="M32.8165 17.0338C32.2951 8.93418 25.308 2.66102 17.0504 3.18404C16.7198 3.20496 16.4686 3.48991 16.4896 3.8206C16.5104 4.15121 16.7969 4.40189 17.126 4.38142C24.6355 3.90518 31.137 9.6173 31.6192 17.1103C32.1238 25.062 25.8404 31.6487 18.0004 31.6487C10.4752 31.6487 4.35297 25.5265 4.35297 18.0013C4.35297 12.2175 8.01648 7.04244 13.4693 5.124C13.7818 5.014 13.946 4.67154 13.8361 4.35899C13.726 4.04645 13.3835 3.88231 13.0711 3.99216C7.13884 6.07947 3.1532 11.7093 3.1532 18.0013C3.1532 26.1881 9.81359 32.8485 18.0004 32.8485C26.4157 32.8485 33.3719 25.7858 32.8165 17.0338Z" fill="black"/>
<path d="M30.7259 5.27586C23.6937 -1.75646 12.2928 -1.7623 5.26105 5.28823C-1.75304 12.3208 -1.75911 23.693 5.27493 30.7268C11.2961 36.748 20.4383 37.5711 27.3132 33.4045C27.5965 33.2327 27.687 32.8638 27.5153 32.5805C27.3435 32.2972 26.9747 32.2068 26.6913 32.3784C24.0795 33.9614 21.0742 34.7982 18.0004 34.7982C8.73859 34.7982 1.20357 27.2632 1.20357 18.0014C1.20357 8.7396 8.73859 1.20458 18.0004 1.20458C27.2622 1.20458 34.7972 8.7396 34.7972 18.0014C34.7972 22.6252 32.9559 26.9351 29.6126 30.1369C29.3733 30.3661 29.3651 30.7458 29.5943 30.9851C29.8235 31.2244 30.2033 31.2327 30.4425 31.0034C37.6905 24.062 37.9155 12.4653 30.7259 5.27586Z" fill="black"/>
<path d="M25.5323 21.9063C25.0736 22.252 25.3195 22.9853 25.8937 22.9853C26.0195 22.9853 26.1462 22.946 26.2543 22.8645C26.6735 22.5487 26.9237 22.0467 26.9237 21.5219V12.6399C26.9237 11.9512 26.4923 11.3212 25.8502 11.0723L17.5542 7.85664C16.5421 7.46379 15.4495 8.21267 15.4495 9.29824V12.9342L14.3679 12.515C13.3577 12.1229 12.2632 12.8688 12.2632 13.9565C12.2632 18.8145 12.2533 18.5053 12.2833 18.6198C12.3228 18.7719 12.4209 18.9023 12.5561 18.983C12.625 19.024 12.2221 18.8621 19.0446 21.5076C19.2285 21.5789 19.3521 21.7592 19.3521 21.9564V26.4043C19.3521 26.6474 19.1082 26.8151 18.8807 26.7273L10.5843 23.5117C10.4004 23.4404 10.2769 23.2601 10.2769 23.0628V18.6149C10.2769 18.2836 10.0083 18.015 9.67697 18.015C9.34569 18.015 9.07709 18.2836 9.07709 18.6149V23.0628C9.07709 23.7516 9.50856 24.3815 10.1507 24.6304L18.447 27.846C19.4589 28.2386 20.5517 27.4893 20.5517 26.4044V21.9565C20.5517 21.2678 20.1202 20.6379 19.4781 20.389L13.4629 18.0575V13.9566C13.4629 13.7121 13.7081 13.5463 13.9342 13.6337L22.2306 16.8492C22.4144 16.9205 22.538 17.1009 22.538 17.2981V23.923C22.538 24.0733 22.4663 24.217 22.3463 24.3075C21.8866 24.6539 22.1347 25.3867 22.7078 25.3864C22.8335 25.3864 22.9603 25.3471 23.0684 25.2656C23.4876 24.9498 23.7378 24.4479 23.7378 23.9231V17.2982C23.7378 16.6094 23.3063 15.9795 22.6642 15.7307L16.6492 13.3993V9.29831C16.6492 9.05543 16.8932 8.88724 17.1206 8.97535L25.4166 12.191C25.6004 12.2624 25.724 12.4427 25.724 12.64V21.5219C25.7239 21.6722 25.6523 21.8159 25.5323 21.9063Z" fill="black"/>
</g>
<defs>
<clipPath id="clip0_3_8959">
<rect width="36" height="36" fill="white"/>
</clipPath>
</defs>
</svg>
