<svg width="36" height="36" viewBox="0 0 36 36" fill="none" xmlns="http://www.w3.org/2000/svg">
<g clip-path="url(#clip0_3_8915)">
<path d="M17.9942 35.3998C27.6038 35.3998 35.3939 27.6096 35.3939 18C35.3939 8.39046 27.6038 0.600342 17.9942 0.600342C8.3846 0.600342 0.594482 8.39046 0.594482 18C0.594482 27.6096 8.3846 35.3998 17.9942 35.3998Z" fill="#FFE773"/>
<path d="M2.54452 19.2C2.54452 21.3707 2.94201 23.4486 3.66815 25.3648C3.95877 26.1317 2.85171 26.6161 2.47957 25.8853C1.29811 23.5653 0.621773 20.945 0.595299 18.1693C0.5026 8.44161 8.31582 0.573188 18.044 0.600412C18.8661 0.602737 18.9323 1.80549 18.1152 1.89572C9.79952 2.8143 2.54452 9.71666 2.54452 19.2Z" fill="#FFF0A6"/>
<path d="M17.9943 32.25C25.8642 32.25 32.244 25.8702 32.244 18.0003C32.244 10.1303 25.8642 3.75049 17.9943 3.75049C10.1243 3.75049 3.74451 10.1303 3.74451 18.0003C3.74451 25.8702 10.1243 32.25 17.9943 32.25Z" fill="#FFF0A6"/>
<path d="M5.18154 24.2435C4.20446 22.2423 3.68239 19.9783 3.75027 17.5862C3.97046 9.82052 10.4636 3.59779 18.283 3.75334C19.1857 3.77127 19.262 5.08757 18.367 5.20629C9.97824 6.3186 4.09099 15.5901 6.5352 23.7139C6.79139 24.5654 5.57176 25.0426 5.18154 24.2435Z" fill="#FFF8D6"/>
<path d="M17.9942 19.8752C19.0297 19.8752 19.8692 19.0357 19.8692 18.0002C19.8692 16.9647 19.0297 16.1252 17.9942 16.1252C16.9587 16.1252 16.1193 16.9647 16.1193 18.0002C16.1193 19.0357 16.9587 19.8752 17.9942 19.8752Z" fill="#FFE773"/>
<path d="M30.722 5.27272C23.8124 -1.63684 12.5391 -1.81961 5.43465 5.10525C2.07231 8.38254 0.143191 12.7674 0.0027186 17.4521C-0.00725624 17.7834 0.253214 18.0599 0.584409 18.0698C0.914703 18.0804 1.1922 17.8194 1.2021 17.4881C1.47599 8.35494 8.85197 1.20059 17.9942 1.20059C27.2576 1.20059 34.7939 8.73691 34.7939 18.0003C34.7939 27.2637 27.2576 34.8 17.9942 34.8C10.1794 34.8 3.28144 29.271 1.59262 21.6533C1.52092 21.3299 1.20052 21.1258 0.876979 21.1974C0.553509 21.2692 0.349363 21.5896 0.421062 21.9131C1.29352 25.8482 3.50696 29.423 6.65361 31.9788C13.6528 37.6641 24.0738 37.3902 30.7326 30.7166C37.7527 23.6808 37.7562 12.3068 30.722 5.27272Z" fill="black"/>
<path d="M28.4512 11.9627C28.0809 11.3213 27.4188 10.8913 26.5122 10.683C26.1114 9.79665 24.8837 9.72766 24.3869 10.5662C23.6046 10.6263 22.8202 10.773 22.0555 10.9654C19.7493 2.85672 14.1462 4.69389 13.1719 15.2141C12.2833 15.8425 11.4634 16.4985 10.7326 17.1657C10.3115 16.7312 9.89898 16.2598 9.53794 15.7681C9.92456 15.0104 9.41674 14.1056 8.57645 14.0306C8.37336 13.4313 8.36683 12.9252 8.57615 12.5628C8.93637 11.9391 9.9994 11.6468 11.4924 11.7603C11.8225 11.7851 12.1111 11.5381 12.1362 11.2077C12.1614 10.8773 11.914 10.589 11.5835 10.5639C7.78387 10.2737 6.65491 12.278 7.48515 14.5406C6.93481 15.3292 7.49842 16.4252 8.46928 16.4252C8.58283 16.4252 8.44048 16.3447 8.96457 16.9865C9.24019 17.324 9.54334 17.6626 9.87078 18.0002C8.35258 19.5655 6.44799 22.1513 7.53705 24.0376C8.07876 24.9759 9.24334 25.4631 10.887 25.4631C11.8981 25.4631 12.9618 25.2793 13.9345 25.0345C14.1115 25.6588 14.3122 26.2397 14.534 26.7667C13.969 27.5786 14.5827 28.7005 15.5825 28.6468C17.389 31.0196 20.4104 30.8189 22.0555 25.0348C24.1743 25.5681 27.3627 25.9227 28.451 24.0376C29.5409 22.1499 27.6325 19.5619 26.1158 17.9986C27.6474 16.4224 29.544 13.8554 28.4512 11.9627ZM17.9942 7.12527C19.0438 7.12527 20.1643 8.68952 20.9042 11.2946C19.9606 11.5939 18.9824 11.9754 17.9934 12.431C17.0093 11.9781 16.0317 11.5959 15.0861 11.2957C15.8303 8.67977 16.9555 7.12527 17.9942 7.12527ZM21.1935 12.4587C21.3209 13.049 21.4299 13.6792 21.5163 14.3457C20.8194 13.9061 20.124 13.5049 19.3975 13.1228C20.018 12.8643 20.6186 12.6435 21.1935 12.4587ZM14.7957 12.4623C15.3819 12.6509 15.9815 12.8724 16.5877 13.1244C15.8621 13.5063 15.1682 13.9065 14.4735 14.3448C14.56 13.6794 14.6687 13.0505 14.7957 12.4623ZM13.639 17.7848C13.9666 17.7942 14.246 17.5323 14.2548 17.2011C14.2668 16.7487 14.2888 16.3077 14.3196 15.8785C15.4991 15.0796 16.756 14.3579 17.9924 13.7573C19.2878 14.3851 20.5328 15.1093 21.6693 15.879C21.849 18.3921 21.7273 21.0684 21.1934 23.5415C20.6186 23.3568 20.018 23.1357 19.3976 22.8773C19.7554 22.6891 20.1129 22.4925 20.4691 22.2869C20.756 22.1212 20.8544 21.7542 20.6887 21.4673C20.5231 21.1804 20.1562 21.0819 19.8691 21.2477C19.2334 21.6147 18.6069 21.9462 17.9943 22.2437C15.7482 21.1527 13.4331 19.6645 11.5971 18.0001C12.0526 17.5873 12.5452 17.1784 13.0691 16.7779C13.064 16.908 13.0587 17.0382 13.0552 17.1691C13.0465 17.5004 13.3077 17.7761 13.639 17.7848ZM22.9198 16.7784C23.4432 17.1786 23.9354 17.587 24.3904 17.9994C23.9468 18.4015 23.4557 18.8098 22.92 19.2195C22.9521 18.3951 22.9521 17.6028 22.9198 16.7784ZM16.5908 22.8774C15.971 23.1356 15.3711 23.3562 14.7968 23.5409C14.6702 22.9549 14.5614 22.3257 14.4744 21.6559C15.1786 22.1 15.8713 22.4988 16.5908 22.8774ZM8.57623 23.4375C8.14184 22.685 8.63443 21.315 9.89403 19.7728C10.1488 19.4608 10.4294 19.1475 10.7327 18.8346C11.4634 19.5017 12.2832 20.1577 13.1717 20.786C13.2721 21.8688 13.432 22.9082 13.644 23.8726C11.017 24.5348 9.10129 24.3467 8.57623 23.4375ZM17.9942 28.8749C17.5412 28.8749 17.0578 28.5662 16.594 27.9805C16.9703 27.2214 16.4587 26.3278 15.6238 26.2553C15.4306 25.794 15.2498 25.2762 15.0869 24.7048C16.0295 24.4057 17.0064 24.0246 17.9943 23.5696C18.9831 24.025 19.961 24.4063 20.9043 24.7056C20.1643 27.3106 19.0438 28.8749 17.9942 28.8749ZM27.4121 23.4375C27.0979 23.9816 26.2861 24.2675 25.1213 24.2674C24.3404 24.2674 23.4004 24.1382 22.3463 23.8726C22.5588 22.9058 22.7175 21.868 22.8175 20.7837C23.7046 20.1557 24.5245 19.4979 25.2535 18.8324C25.5575 19.1459 25.8388 19.46 26.0942 19.7728C27.3538 21.315 27.8465 22.685 27.4121 23.4375ZM25.2549 17.1649C24.5246 16.4982 23.7053 15.8428 22.8174 15.2148C22.7175 14.131 22.5588 13.0936 22.3463 12.1272C23.0845 11.9412 23.7664 11.8225 24.3771 11.7679C24.8087 12.5235 25.8705 12.588 26.3873 11.8812C26.8781 12.0175 27.2295 12.2463 27.4121 12.5627C27.9117 13.4282 27.1841 15.1729 25.2549 17.1649Z" fill="black"/>
<path d="M23.5623 4.22977C21.7927 3.51353 19.9194 3.15039 17.9943 3.15039C9.80607 3.15039 3.14453 9.81193 3.14453 18.0001C3.14453 26.1884 9.80607 32.8499 17.9943 32.8499C26.4111 32.8499 33.3685 25.7859 32.813 17.0325C32.5315 12.6588 30.34 8.65297 26.8004 6.04204C26.5336 5.84555 26.1581 5.90217 25.9613 6.16872C25.7647 6.43541 25.8214 6.811 26.088 7.0078C29.342 9.40799 31.3567 13.09 31.6153 17.1091C32.1198 25.0568 25.8418 31.65 17.9942 31.65C10.4677 31.65 4.34444 25.5267 4.34444 18.0002C4.34444 10.4737 10.4677 4.35045 17.9942 4.35045C19.7643 4.35045 21.4862 4.68412 23.1121 5.34223C23.4193 5.46635 23.7691 5.31823 23.8934 5.01111C24.0177 4.70399 23.8695 4.3542 23.5623 4.22977Z" fill="black"/>
<path d="M17.9942 20.4751C19.3589 20.4751 20.4692 19.3648 20.4692 18.0001C20.4692 17.6688 20.2006 17.4001 19.8692 17.4001C19.5379 17.4001 19.2692 17.6688 19.2692 18.0001C19.2692 18.7031 18.6973 19.2751 17.9942 19.2751C17.2912 19.2751 16.7193 18.7031 16.7193 18.0001C16.7193 17.2971 17.2912 16.7251 17.9942 16.7251C18.3256 16.7251 18.5942 16.4565 18.5942 16.1251C18.5942 15.7938 18.3256 15.5251 17.9942 15.5251C16.6296 15.5251 15.5193 16.6354 15.5193 18.0001C15.5193 19.3648 16.6295 20.4751 17.9942 20.4751Z" fill="black"/>
</g>
<defs>
<clipPath id="clip0_3_8915">
<rect width="36" height="36" fill="white"/>
</clipPath>
</defs>
</svg>
