<svg width="37" height="36" viewBox="0 0 37 36" fill="none" xmlns="http://www.w3.org/2000/svg">
<g clip-path="url(#clip0_3_8882)">
<path d="M18.5 0.70459C8.94769 0.70459 1.20453 8.44775 1.20453 18.0001C1.20453 27.5524 8.94769 35.2955 18.5 35.2955C28.0523 35.2955 35.7955 27.5524 35.7955 18.0001C35.7955 8.44775 28.0523 0.70459 18.5 0.70459Z" fill="#FFCE60"/>
<path d="M24.0303 5.59194C22.341 4.8379 20.4694 4.4187 18.5 4.4187C10.9992 4.4187 4.91864 10.4993 4.91864 18.0001C4.91864 25.5008 10.9992 31.5814 18.5 31.5814C26.0008 31.5814 32.0813 25.5008 32.0813 18.0001C32.0813 14.772 30.9164 11.8378 29.0744 9.47656C27.1484 7.00789 24.0303 5.59194 24.0303 5.59194Z" fill="#FFE7B1"/>
<path d="M10.8974 7.44158C10.9825 7.06261 10.7442 6.68647 10.3652 6.60143C9.98625 6.5164 9.6101 6.75468 9.52506 7.13364C9.44003 7.51261 9.67831 7.88876 10.0573 7.97379C10.4362 8.05883 10.8124 7.82055 10.8974 7.44158Z" fill="black"/>
<path d="M0.5 18C0.5 22.8081 2.37228 27.3284 5.77196 30.728C9.17164 34.1277 13.6919 36 18.5 36C23.3081 36 27.8284 34.1277 31.228 30.728C34.6277 27.3284 36.5 22.8081 36.5 18C36.5 13.1919 34.6277 8.67164 31.228 5.27196C27.8284 1.87228 23.3081 0 18.5 0C13.6919 0 9.17164 1.87228 5.77196 5.27196C2.37228 8.67164 0.5 13.1919 0.5 18ZM1.90899 18C1.90899 13.5683 3.63474 9.40184 6.76829 6.26829C9.90184 3.13474 14.0683 1.40899 18.5 1.40899C22.9317 1.40899 27.0982 3.13474 30.2317 6.26829C33.3653 9.40184 35.091 13.5682 35.091 18C35.091 22.4318 33.3653 26.5982 30.2317 29.7317C27.0982 32.8653 22.9318 34.591 18.5 34.591C14.0682 34.591 9.90184 32.8653 6.76829 29.7317C3.63474 26.5982 1.90899 22.4317 1.90899 18Z" fill="black"/>
<path d="M7.3774 9.03403C7.62174 8.73126 8.06527 8.68387 8.3681 8.92828C8.67087 9.17261 8.71826 9.61614 8.47385 9.91898C6.63553 12.1968 5.6231 15.0666 5.6231 18C5.6231 25.1003 11.3997 30.8769 18.5 30.8769C25.6003 30.8769 31.3768 25.1003 31.3768 18C31.3768 10.8997 25.6003 5.1231 18.5 5.1231C16.674 5.1231 14.91 5.49724 13.2569 6.23517C12.9016 6.39379 12.485 6.23432 12.3265 5.87903C12.1679 5.52374 12.3273 5.10714 12.6826 4.94859C14.5176 4.12945 16.4749 3.71411 18.5 3.71411C26.3772 3.71411 32.7859 10.1227 32.7859 18C32.7859 25.8772 26.3772 32.2859 18.5 32.2859C10.6227 32.2859 4.21411 25.8772 4.21411 18C4.21411 14.7457 5.33749 11.5616 7.3774 9.03403Z" fill="black"/>
<path d="M18.5 6.6001C18.2834 6.6001 18.0789 6.69973 17.9453 6.87024L11.9572 14.5164C11.844 14.6609 11.7952 14.8391 11.8107 15.0131C11.7886 15.274 11.9126 15.5369 12.1529 15.6793L18.1411 19.2253C18.3592 19.3547 18.6409 19.3547 18.859 19.2253L24.8472 15.6793C25.0878 15.5368 25.2118 15.2735 25.1894 15.0124C25.2046 14.8387 25.1558 14.6608 25.0428 14.5164L19.0546 6.87024C18.9211 6.69973 18.7165 6.6001 18.5 6.6001ZM19.2046 13.8767L22.9489 15.1658L19.2046 17.3832V13.8767ZM17.7955 17.3832L14.0511 15.1658L17.7955 13.8766V17.3832ZM17.7955 9.34672V12.3865L14.536 13.5088L17.7955 9.34672ZM19.2046 12.3865V9.34686L22.464 13.5087L19.2046 12.3865Z" fill="black"/>
<path d="M25.1916 18.5288C25.164 18.0051 24.5719 17.6934 24.1233 17.9623L18.5001 21.2922L12.8757 17.9617C12.6187 17.8065 12.2802 17.8357 12.0527 18.0308C11.7962 18.2508 11.7338 18.6383 11.9079 18.9278L17.8933 29.0665C18.161 29.5198 18.8389 29.5199 19.1066 29.0665L25.091 18.9296C25.1632 18.81 25.1986 18.6684 25.1916 18.5288ZM17.7956 26.1293L14.5128 20.5686L17.7956 22.5125L17.7956 26.1293ZM19.2046 22.5126L22.4872 20.5687L19.2046 26.1292V22.5126Z" fill="black"/>
</g>
<defs>
<clipPath id="clip0_3_8882">
<rect width="36" height="36" fill="white" transform="translate(0.5)"/>
</clipPath>
</defs>
</svg>
