<svg width="25" height="24" viewBox="0 0 25 24" fill="none" xmlns="http://www.w3.org/2000/svg">
<g clip-path="url(#clip0_2_5111)">
<path d="M12.5 0.469696C6.13178 0.469696 0.969666 5.63181 0.969666 12C0.969666 18.3682 6.13178 23.5303 12.5 23.5303C18.8682 23.5303 24.0303 18.3682 24.0303 12C24.0303 5.63181 18.8682 0.469696 12.5 0.469696Z" fill="#FFCE60"/>
<path d="M16.1868 3.72793C15.0607 3.22524 13.8129 2.94577 12.5 2.94577C7.49944 2.94577 3.44574 6.99947 3.44574 12C3.44574 17.0005 7.49944 21.0542 12.5 21.0542C17.5005 21.0542 21.5542 17.0005 21.5542 12C21.5542 9.84797 20.7776 7.89183 19.5496 6.31768C18.2656 4.67189 16.1868 3.72793 16.1868 3.72793Z" fill="#FFE7B1"/>
<path d="M7.43162 4.96106C7.48831 4.70842 7.32945 4.45765 7.07681 4.40096C6.82416 4.34427 6.5734 4.50313 6.51671 4.75577C6.46002 5.00842 6.61887 5.25918 6.87152 5.31587C7.12416 5.37256 7.37493 5.21371 7.43162 4.96106Z" fill="black"/>
<path d="M0.5 12C0.5 15.2054 1.74819 18.2189 4.01464 20.4854C6.28109 22.7518 9.29459 24 12.5 24C15.7054 24 18.7189 22.7518 20.9854 20.4854C23.2518 18.2189 24.5 15.2054 24.5 12C24.5 8.79459 23.2518 5.78109 20.9854 3.51464C18.7189 1.24819 15.7054 0 12.5 0C9.29459 0 6.28109 1.24819 4.01464 3.51464C1.74819 5.78109 0.5 8.79459 0.5 12ZM1.43933 12C1.43933 9.04552 2.58983 6.26789 4.67886 4.17886C6.76789 2.08983 9.54552 0.939328 12.5 0.939328C15.4545 0.939328 18.2321 2.08983 20.3211 4.17886C22.4102 6.26789 23.5607 9.04547 23.5607 12C23.5607 14.9545 22.4102 17.7321 20.3211 19.8211C18.2321 21.9102 15.4545 23.0607 12.5 23.0607C9.54547 23.0607 6.76789 21.9102 4.67886 19.8211C2.58983 17.7321 1.43933 14.9545 1.43933 12Z" fill="black"/>
<path d="M5.08493 6.02268C5.24782 5.82084 5.54351 5.78925 5.7454 5.95218C5.94725 6.11507 5.97884 6.41076 5.8159 6.61265C4.59036 8.13117 3.9154 10.0444 3.9154 12C3.9154 16.7335 7.76646 20.5846 12.5 20.5846C17.2335 20.5846 21.0845 16.7335 21.0845 12C21.0845 7.26646 17.2335 3.4154 12.5 3.4154C11.2827 3.4154 10.1067 3.66482 9.00462 4.15678C8.76776 4.26253 8.49003 4.15621 8.38432 3.91936C8.27857 3.6825 8.38489 3.40476 8.62175 3.29906C9.84509 2.75296 11.1499 2.47607 12.5 2.47607C17.7515 2.47607 22.0239 6.7485 22.0239 12C22.0239 17.2515 17.7515 21.5239 12.5 21.5239C7.2485 21.5239 2.97607 17.2515 2.97607 12C2.97607 9.83048 3.725 7.70775 5.08493 6.02268Z" fill="black"/>
<path d="M12.5 4.40005C12.3556 4.40005 12.2192 4.46648 12.1302 4.58015L8.13812 9.67757C8.06265 9.77395 8.03012 9.89273 8.04044 10.0087C8.02572 10.1826 8.1084 10.3579 8.26862 10.4528L12.2607 12.8168C12.4061 12.9031 12.5939 12.9031 12.7393 12.8168L16.7314 10.4528C16.8918 10.3579 16.9745 10.1823 16.9596 10.0083C16.9697 9.89245 16.9372 9.77385 16.8619 9.67762L12.8697 4.58015C12.7807 4.46648 12.6444 4.40005 12.5 4.40005ZM12.9697 9.2511L15.466 10.1106L12.9697 11.5888V9.2511ZM12.0303 11.5888L9.53406 10.1106L12.0303 9.25106V11.5888ZM12.0303 6.23113V8.25763L9.85731 9.00585L12.0303 6.23113ZM12.9697 8.25763V6.23123L15.1427 9.00581L12.9697 8.25763Z" fill="black"/>
<path d="M16.961 12.3525C16.9426 12.0034 16.5479 11.7956 16.2488 11.9748L12.5 14.1948L8.75044 11.9744C8.57911 11.8709 8.35341 11.8904 8.20177 12.0205C8.03077 12.1671 7.98919 12.4255 8.10521 12.6185L12.0955 19.3776C12.2739 19.6798 12.7259 19.6799 12.9044 19.3776L16.8939 12.6197C16.9421 12.5399 16.9657 12.4455 16.961 12.3525ZM12.0303 17.4194L9.84183 13.7123L12.0304 15.0083L12.0303 17.4194ZM12.9697 15.0083L15.1581 13.7124L12.9697 17.4194V15.0083Z" fill="black"/>
</g>
<defs>
<clipPath id="clip0_2_5111">
<rect width="24" height="24" fill="white" transform="translate(0.5)"/>
</clipPath>
</defs>
</svg>
